<?xml version="1.0" encoding="UTF-8" standalone="no"?>
<svg
   xmlns:dc="http://purl.org/dc/elements/1.1/"
   xmlns:cc="http://creativecommons.org/ns#"
   xmlns:rdf="http://www.w3.org/1999/02/22-rdf-syntax-ns#"
   xmlns:svg="http://www.w3.org/2000/svg"
   xmlns="http://www.w3.org/2000/svg"
   width="79.375099mm"
   height="79.374916mm"
   viewBox="0 0 79.375091 79.374916"
   version="1.1"
   id="svg8">
  <defs
     id="defs2">
    <clipPath
       clipPathUnits="userSpaceOnUse"
       id="clipPath1983">
      <path
         d="m 5587.89,116.813 c -5.39,0 -10.37,4.699 -10.37,4.699 l -30.45,190.218 c 18.47,0 41.56,1.391 48.47,1.391 5.43,0 10.38,-4.711 10.38,-4.711 l 9.31,-93.058 c 0.8,-8.012 0.86,-19.141 0.54,-30.864 3,12.793 6.29,24.903 9.51,33.082 l 37.02,94.18 c 16.42,0 36.8,1.371 43.13,1.371 h 0.02 c 5.4,0 10.37,-4.711 10.37,-4.711 l -89.05,-190.219 c -9.76,0 -33.17,-1.378 -38.88,-1.378"
         id="path1981" />
    </clipPath>
  </defs>
  <metadata
     id="metadata5">
    <rdf:RDF>
      <cc:Work
         rdf:about="">
        <dc:format>image/svg+xml</dc:format>
        <dc:type
           rdf:resource="http://purl.org/dc/dcmitype/StillImage" />
        <dc:title></dc:title>
      </cc:Work>
    </rdf:RDF>
  </metadata>
  <g
     id="layer1"
     transform="translate(-272.73232,-215.86002)">
    <path
       d="m 88.505721,43.764115 -0.0065,0.0033 0.01155,0.01355 z"
       style="fill:#6a5e50;fill-opacity:1;fill-rule:nonzero;stroke:none;stroke-width:0.0107904"
       id="path1811" />
    <g
       id="g2441"
       transform="matrix(1.0000165,0,0,0.99992018,197.76806,128.79076)">
      <g
         id="g1413"
         transform="matrix(0.9908056,0,0,1.0000154,2.8449294,-5.5951134)">
        <path
           id="path10"
           style="fill:#ffc500;fill-opacity:1;stroke:#ffc500;stroke-width:0.999708;stroke-opacity:1"
           transform="scale(0.26458333)"
           d="m 424.68945,350.76758 a 149.50014,149.50015 0 0 0 -149.08789,149.5 149.50014,149.50015 0 0 0 149.50196,149.5 149.50014,149.50015 0 0 0 0.83398,-0.004 c -0.025,-99.66547 -0.0979,-199.33047 -0.45703,-298.99609 a 149.50014,149.50015 0 0 0 -0.37695,0 149.50014,149.50015 0 0 0 -0.41407,0 z" />
        <path
           id="path10-7"
           style="fill:#666666;fill-opacity:1;stroke:#666666;stroke-width:0.264506;stroke-opacity:1"
           d="m 113.13017,171.91301 a 39.555245,39.555248 0.11594276 0 0 39.63517,-39.47509 39.555245,39.555248 0.11594276 0 0 -39.47508,-39.635689 39.555245,39.555248 0.11594276 0 0 -0.71522,0.005 c -0.007,26.366009 -0.0625,52.731969 -0.10942,79.097959 a 39.555245,39.555248 0.11594276 0 0 0.66455,0.008 z" />
      </g>
      <g
         id="g2338"
         transform="matrix(0.4950908,0.86338589,-1.1911702,-0.15427212,98.54782,49.2116)">
        <path
           d="m 126.96698,25.6589 c -0.9786,0.145232 -8.97492,5.417489 -10.73549,7.479257 0.48324,-0.160509 1.44024,0.236588 2.29263,0.983526 0.88109,0.772094 1.3433,1.648885 1.12071,2.067268 1.22348,-0.617593 5.36586,-2.899247 9.77667,-7.483738 1.1398,-0.624825 -1.40275,-3.202545 -2.45452,-3.046313"
           style="fill:#ffc500;fill-opacity:1;fill-rule:nonzero;stroke:none;stroke-width:0.0107904"
           id="path1967" />
        <path
           d="m 118.83016,33.715768 c -0.85239,-0.746938 -1.80939,-1.144035 -2.29263,-0.983526 -0.0646,0.02149 -0.12153,0.05204 -0.16771,0.094 -0.053,0.04797 -0.0891,0.107855 -0.1117,0.176499 l -1.42869,2.260164 v 0 0 c 0.25734,-0.233023 0.97963,0.02811 1.61333,0.583272 0.63357,0.555263 0.9387,1.194245 0.68136,1.42737 v 0 l 2.53637,-1.276027 c 0.0819,-0.02098 0.15308,-0.05459 0.20864,-0.105004 0.0346,-0.03137 0.0602,-0.06905 0.0817,-0.109484 0.22258,-0.418383 -0.23962,-1.295174 -1.12071,-2.067268"
           style="fill:#666666;fill-opacity:1;fill-rule:nonzero;stroke:none;stroke-width:0.0107904"
           id="path1969" />
        <path
           d="m 112.6288,44.308802 -0.20144,0.208886 c -0.0904,0.0939 -0.21847,0.141973 -0.3472,0.141973 -0.10541,0 -0.21138,-0.03229 -0.2977,-0.09828 -0.19149,-0.146556 -0.21355,-0.403717 -0.049,-0.574411 l 0.20156,-0.209089 c 1.35289,-1.40303 2.20574,-2.313023 2.63102,-3.061183 -2.80582,-1.112666 -6.32811,-1.365346 -9.84846,0.249319 -3.73733,1.714168 -8.335166,13.679229 -7.048691,14.420667 0.01132,0.0065 0.02206,0.01416 0.0343,0.01894 1.402857,0.546811 22.533731,-3.905485 22.972041,-9.060822 0.005,-0.06264 0.01,-0.123641 0.0137,-0.184545 0.10975,-1.634932 -0.22281,-2.650132 -0.79477,-3.31152 l -0.0115,-0.01355 c -1.0983,-1.253927 -3.06397,-1.225614 -4.48454,-1.767332 -0.50211,0.889013 -1.44722,1.869891 -2.76925,3.24094"
           style="fill:#666666;fill-opacity:1;fill-rule:nonzero;stroke:none;stroke-width:0.0107904"
           id="path1973" />
        <path
           d="m 116.73435,36.188952 c 0.20875,-0.125576 0.26431,-0.377848 0.12404,-0.564328 -0.14073,-0.186989 -0.42482,-0.237097 -0.63438,-0.111725 -0.16634,0.0993 -0.35943,0.241986 -0.55001,0.420929 -0.61414,0.576957 -1.20164,1.535531 -0.77659,2.669585 0.23608,0.629611 0.19172,1.160941 -0.18097,1.816523 -0.42529,0.74816 -1.27813,1.658153 -2.63103,3.061183 l -0.20155,0.209089 c -0.16451,0.170694 -0.14245,0.427855 0.049,0.574411 0.0863,0.066 0.19229,0.09828 0.29769,0.09828 0.12873,0 0.25677,-0.04807 0.3472,-0.141973 l 0.20144,-0.208886 c 1.32203,-1.371049 2.26714,-2.351927 2.76924,-3.24094 0.45729,-0.809879 0.54715,-1.543475 0.21642,-2.425867 -0.30708,-0.819147 0.16656,-1.466989 0.55389,-1.831495 0.21013,-0.197581 0.39476,-0.312158 0.41556,-0.324787"
           style="fill:#666666;fill-opacity:1;fill-rule:nonzero;stroke:none;stroke-width:0.0107904"
           id="path1975" />
      </g>
      <g
         id="g2424"
         transform="translate(-0.93217959,8.3896163)">
        <path
           d="m 125.29557,106.67785 -9.90672,-11.729001 13.06091,-3.035617 9.90672,11.729008 -13.06091,3.03561"
           style="fill:#ffc500;fill-opacity:1;fill-rule:evenodd;stroke:none;stroke-width:0.0101374"
           id="path1491" />
        <path
           d="m 128.14484,91.968908 -13.06091,3.035613 9.90673,11.728969 9.16282,-2.12963 -8.55451,1.77429 -1.46766,-1.73763 9.90801,-2.3946 -10.16049,2.23924 -2.61157,-3.09195 2.43742,-0.62764 -2.6897,0.47232 -0.5612,-0.66442 12.43938,-2.982819 -12.61202,2.778419 -2.17992,-2.580849 4.33951,-1.10029 -4.61344,0.91936 -2.05038,-2.42754 12.36793,-3.210849"
           style="fill:#000000;fill-opacity:1;fill-rule:evenodd;stroke:none;stroke-width:0.0101374"
           id="path1493" />
        <path
           d="m 120.89132,107.70149 -9.90673,-11.729008 4.40426,-1.023633 9.90672,11.729001 -4.40425,1.02364"
           style="fill:#808080;fill-opacity:1;fill-rule:evenodd;stroke:none;stroke-width:0.0101374"
           id="path1495" />
        <path
           d="m 119.53708,108.01624 -9.90673,-11.729005 1.35424,-0.314753 9.90673,11.729008 -1.35424,0.31475"
           style="fill:#808080;fill-opacity:1;fill-rule:evenodd;stroke:none;stroke-width:0.0101374"
           id="path1497" />
        <path
           d="m 87.783497,109.13591 c -0.203928,-0.0834 -0.376106,-0.18956 -0.487176,-0.32106 -0.372477,-0.44099 0.03388,-0.96319 0.907528,-1.16624 0.362271,-0.0842 0.745875,-0.097 1.099844,-0.0555 0.203927,0.0834 0.375973,0.18959 0.487044,0.3211 0.372477,0.44098 -0.03381,0.96309 -0.90745,1.16614 -0.362271,0.0842 -0.745875,0.097 -1.09979,0.0556 z m 26.800253,-6.98414 -4.9534,-5.864535 c 0,0 -2.92347,0.679477 -3.34117,0.776562 -0.41759,0.09705 1.18332,1.831128 0.46219,3.343523 -0.72107,1.51245 -2.28306,2.83601 -9.559721,3.52404 -7.276838,0.68799 -14.340786,4.10155 -13.285813,5.35057 1.054974,1.24903 10.620701,0.79744 16.480874,-1.5678 5.86,-2.36527 8.77836,-2.08296 11.39842,-1.34712 2.62006,0.73583 3.99319,2.52284 4.41076,2.42579 0.41772,-0.0971 3.34119,-0.77656 3.34119,-0.77656 l -4.95333,-5.86447"
           style="fill:#666666;fill-opacity:1;fill-rule:evenodd;stroke:none;stroke-width:0.0101374"
           id="path1499" />
        <path
           d="m 125.7716,106.81314 12.93278,-3.54197 -10.356,-11.334282 -9.07292,2.484854 8.47892,-2.106093 1.53422,1.679155 -9.80724,2.778643 10.06558,-2.633234 2.72999,2.987899 -2.41112,0.722087 2.66927,-0.57671 0.58664,0.642061 -12.31378,3.46503 12.49425,-3.267508 2.27878,2.494018 -4.29336,1.26845 4.57413,-1.09832 2.14337,2.34584 -12.23351,3.69008"
           style="fill:#000000;fill-opacity:1;fill-rule:evenodd;stroke:none;stroke-width:0.0101374"
           id="path1493-2" />
      </g>
    </g>
  </g>
</svg>
